<?xml version="1.0" encoding="utf-8"?>
<!-- Generator: Adobe Illustrator 21.1.0, SVG Export Plug-In . SVG Version: 6.00 Build 0)  -->
<svg version="1.1" id="Layer_1" xmlns="http://www.w3.org/2000/svg" xmlns:xlink="http://www.w3.org/1999/xlink" x="0px" y="0px"
	 viewBox="0 0 66.9 59" style="enable-background:new 0 0 66.9 59;" xml:space="preserve">
<style type="text/css">
	.st0{fill:#8DC2FF;}
</style>
<g id="Symbols">
	<g id="NAV---HOME" transform="translate(-2321.000000, -94.000000)">
		<g id="Group-6">
			<g id="Group-5" transform="translate(1448.000000, 53.000000)">
				<g id="Group-4" transform="translate(0.000000, 37.000000)">
					<path id="Shape" class="st0" d="M878.2,7v7.1h56.4V7H878.2z M878.2,17.6v41.7c0,0.4,0.3,0.7,0.7,0.7H934c0.4,0,0.7-0.4,0.7-1.1
						V17.6H878.2L878.2,17.6z M900.1,24.7h12.3c0.7,0,1.1,0.3,1.1,0.7v5.7c0,0.4-0.3,0.7-0.7,0.7h-12.8c-0.4,0-0.7-0.3-0.7-0.7v-5.7
						C899.4,25,899.7,24.7,900.1,24.7L900.1,24.7z"/>
				</g>
			</g>
		</g>
	</g>
</g>
</svg>
