<?xml version="1.0" encoding="utf-8"?>
<!-- Generator: Adobe Illustrator 21.1.0, SVG Export Plug-In . SVG Version: 6.00 Build 0)  -->
<svg version="1.1" id="Layer_1" xmlns="http://www.w3.org/2000/svg" xmlns:xlink="http://www.w3.org/1999/xlink" x="0px" y="0px"
	 viewBox="0 0 66.9 59" style="enable-background:new 0 0 66.9 59;" xml:space="preserve">
<style type="text/css">
	.st0{fill:#FFBB48;}
</style>
<title>Shape</title>
<desc>Created with Sketch.</desc>
<g id="Symbols_1_">
	<g id="NAV---HOME_1_" transform="translate(-1581.000000, -94.000000)">
		<g id="Group-6_1_">
			<g id="Group-5_1_" transform="translate(1448.000000, 53.000000)">
				<g id="Group-4_1_" transform="translate(0.000000, 37.000000)">
					<g id="Group-2" transform="translate(133.000000, 4.000000)">
						<path id="Fill-1" class="st0" d="M14.1,3.1C8.6,3.1,3.6,4.4,0,6.5v14.8V53c3.6-2,8.6-3.4,14.1-3.4c7.8,0,14.4,2.5,17.6,6.2
							V9.3C28.6,5.6,21.9,3.1,14.1,3.1"/>
						<path id="Fill-3" class="st0" d="M35.2,9.3v46.5c3.1-3.6,9.8-6.2,17.6-6.2c5.6,0,10.6,1.3,14.1,3.4V21.3V6.5
							c-3.5-2.1-8.6-3.4-14.1-3.4C45,3.1,38.3,5.6,35.2,9.3z"/>
					</g>
				</g>
			</g>
		</g>
	</g>
</g>
</svg>
