<?xml version="1.0" encoding="utf-8"?>
<!-- Generator: Adobe Illustrator 21.1.0, SVG Export Plug-In . SVG Version: 6.00 Build 0)  -->
<svg version="1.1" id="Layer_1" xmlns="http://www.w3.org/2000/svg" xmlns:xlink="http://www.w3.org/1999/xlink" x="0px" y="0px"
	 viewBox="0 0 12 17" style="enable-background:new 0 0 12 17;" xml:space="preserve">
<style type="text/css">
	.st0{fill:#E2231A;}
	.st1{fill:#111820;}
	.st2{fill:#007934;}
</style>
<g>
	<g>
		<path class="st0" d="M6.8,15.5H6.2c-1.3,0-2.5-0.5-3.4-1.4S1.5,12,1.5,10.8c0-1.9,1.2-3.6,2.9-4.3l0,0V5H4.3C1.7,5.9,0,8.2,0,10.9
			C0,14.3,2.8,17,6.2,17h2.1v-0.1C8.2,16.1,7.5,15.5,6.8,15.5z"/>
		<path class="st1" d="M7.9,5.1L7.9,5.1L7.8,6.6l0,0c1.7,0.7,2.9,2.5,2.9,4.4v4.5c0,0.8,0.6,1.4,1.3,1.5h0.1v-5.9
			C12.2,8.3,10.5,5.9,7.9,5.1z"/>
		<path class="st2" d="M6.1,1.7C5.7,1.7,5.4,2,5.4,2.4v8.7c0,0.4,0.3,0.7,0.7,0.7c0.4,0,0.7-0.3,0.7-0.7V2.4C6.8,2,6.5,1.7,6.1,1.7z
			 M6.7,1H6C5.8,1,5.6,0.9,5.6,0.6S5.7,0.2,6,0.2h0.8c0.1,0,0.1,0,0.1-0.1S6.8,0,6.8,0H6C5.6,0,5.4,0.2,5.4,0.6c0,0.2,0,0.3,0.2,0.4
			C5.5,1,5.4,1.1,5.4,1.2s0,0.1,0.1,0.2h0.2l0,0c0,0,0-0.1,0.1-0.1l0,0h1c0.1,0,0.1,0,0.1-0.1C6.9,1,6.8,1,6.7,1z"/>
	</g>
</g>
</svg>
