<?xml version="1.0" encoding="utf-8"?>
<!-- Generator: Adobe Illustrator 21.1.0, SVG Export Plug-In . SVG Version: 6.00 Build 0)  -->
<svg version="1.1" id="Layer_1" xmlns="http://www.w3.org/2000/svg" xmlns:xlink="http://www.w3.org/1999/xlink" x="0px" y="0px"
	 viewBox="0 0 66.9 59" style="enable-background:new 0 0 66.9 59;" xml:space="preserve">
<style type="text/css">
	.st0{fill:#FF78B3;fill-opacity:0.8957;}
</style>
<g id="Symbols">
	<g id="NAV---HOME" transform="translate(-2164.000000, -90.000000)">
		<g id="Group-6">
			<g id="Group-5" transform="translate(1448.000000, 53.000000)">
				<g id="Group-4" transform="translate(0.000000, 37.000000)">
					<g id="Group-22" transform="translate(716.000000, 0.000000)">
						<g id="noun_2741_cc">
							<path id="Shape" class="st0" d="M34.4,18.4l-10-16.9c-8.3,2.7-15,8.8-18.3,16.9H34.4z"/>
							<path id="Shape_1_" class="st0" d="M43,25.8L53.5,8c-5.3-4.9-12.3-8-20-8c-1.8,0-3.6,0.2-5.4,0.5L43,25.8z"/>
							<path id="Shape_2_" class="st0" d="M26.3,22.1H5c-0.6,2.4-1,4.8-1,7.4c0,7.2,2.7,13.7,6.9,18.8L26.3,22.1z"/>
							<path id="Shape_3_" class="st0" d="M40.7,36.9h21.2c0.6-2.4,1-4.8,1-7.4c0-7.1-2.6-13.6-6.9-18.7L40.7,36.9z"/>
							<path id="Shape_4_" class="st0" d="M32.8,40.6l9.9,16.8c8.2-2.7,14.8-8.9,18-16.8H32.8z"/>
							<path id="Shape_5_" class="st0" d="M24.1,33.1l-10.6,18c5.3,4.9,12.2,7.9,20,7.9c1.9,0,3.8-0.2,5.6-0.6L24.1,33.1z"/>
						</g>
					</g>
				</g>
			</g>
		</g>
	</g>
</g>
</svg>
