<?xml version="1.0" encoding="utf-8"?>
<!-- Generator: Adobe Illustrator 21.1.0, SVG Export Plug-In . SVG Version: 6.00 Build 0)  -->
<svg version="1.1" id="Layer_1" xmlns="http://www.w3.org/2000/svg" xmlns:xlink="http://www.w3.org/1999/xlink" x="0px" y="0px"
	 viewBox="0 0 66.9 59" style="enable-background:new 0 0 66.9 59;" xml:space="preserve">
<style type="text/css">
	.st0{fill:#5E65D8;}
</style>
<g id="Symbols">
	<g id="NAV---HOME" transform="translate(-2024.000000, -93.000000)">
		<g id="Group-6">
			<g id="Group-5" transform="translate(1448.000000, 53.000000)">
				<g id="Group-4" transform="translate(0.000000, 37.000000)">
					<path id="Shape" class="st0" d="M619.8,5c-0.9,0-1.8,0.4-2.4,1l-29.2,29.2c-0.4,0.4-0.7,0.9-0.9,1.5l-5.2,18.9
						c-0.3,1.2,0,2.5,0.9,3.3s2.1,1.2,3.3,0.9l18.9-5.2c0.6-0.2,1.1-0.5,1.5-0.9l29.2-29.2c0.6-0.6,1-1.5,1-2.4
						C636.9,12.7,629.2,5,619.8,5z M595.1,50.3c-0.7-1.6-2-2.8-3.5-3.5l2-7.4c4.6,0.6,8.3,4.3,8.9,8.9L595.1,50.3z"/>
				</g>
			</g>
		</g>
	</g>
</g>
</svg>
