<?xml version="1.0" encoding="utf-8"?>
<!-- Generator: Adobe Illustrator 21.1.0, SVG Export Plug-In . SVG Version: 6.00 Build 0)  -->
<svg version="1.1" id="Layer_1" xmlns="http://www.w3.org/2000/svg" xmlns:xlink="http://www.w3.org/1999/xlink" x="0px" y="0px"
	 viewBox="0 0 595.3 595.3" style="enable-background:new 0 0 595.3 595.3;" xml:space="preserve">
<style type="text/css">
	.st0{opacity:0.44;}
	.st1{fill-rule:evenodd;clip-rule:evenodd;fill:#FFFFFF;}
</style>
<g class="st0">
	<path class="st1" d="M297.6,201.9c-51.1,0-92.7,42.9-92.7,95.8s41.6,95.8,92.7,95.8s92.7-42.9,92.7-95.8S348.8,201.9,297.6,201.9
		 M297.6,385.3c-46.8,0-84.9-39.3-84.9-87.7s38-87.7,84.9-87.7s84.9,39.3,84.9,87.7S344.5,385.3,297.6,385.3"/>
	<path class="st1" d="M336.6,290.4l-53.9-34.7c-4.9-3.2-11.3,0.4-11.3,6.5v69.6c0,6.1,6.4,9.7,11.3,6.5l53.9-34.7
		C341.3,300.3,341.3,293.4,336.6,290.4"/>
</g>
</svg>
