<?xml version="1.0" encoding="UTF-8"?>
<svg width="281px" height="280px" viewBox="0 0 281 280" version="1.1" xmlns="http://www.w3.org/2000/svg" xmlns:xlink="http://www.w3.org/1999/xlink">
    <!-- Generator: Sketch 44.1 (41455) - http://www.bohemiancoding.com/sketch -->
    <title>Group 17</title>
    <desc>Created with Sketch.</desc>
    <defs>
        <ellipse id="path-1" cx="140" cy="139.973545" rx="140" ry="139.973545"></ellipse>
    </defs>
    <g id="Page-1" stroke="none" stroke-width="1" fill="none" fill-rule="evenodd">
        <g id="Group-17" transform="translate(0.500000, 0.000000)">
            <mask id="mask-2" fill="white">
                <use xlink:href="#path-1"></use>
            </mask>
            <use id="Oval" fill="#FFFFFF" style="mix-blend-mode: multiply;" transform="translate(140.000000, 139.973545) rotate(-180.000000) translate(-140.000000, -139.973545) " xlink:href="#path-1"></use>
            <g id="Page-1" mask="url(#mask-2)">
                <g transform="translate(27.500000, 33.500000)">
                    <g id="Group-7" transform="translate(0.000000, 22.000000)">
                        <path d="M130.569105,128.426598 C128.986605,130.068907 128.248992,132.350039 128.564605,134.606328 L132.203912,160.662343 L108.571912,149.144887 C107.547055,148.64625 106.435315,148.396931 105.323576,148.396931 C104.211836,148.396931 103.103643,148.64625 102.078786,149.144887 L78.4423529,160.662343 L82.0860924,134.606328 C82.4008193,132.350039 81.6596597,130.068907 80.0771597,128.426598 L61.8300924,109.492578 L87.7139412,104.907245 C89.9613571,104.508868 91.8967059,103.098132 92.9667773,101.084064 L105.323576,77.8663775 L117.679487,101.084064 C118.749559,103.098132 120.68934,104.508868 122.93321,104.907245 L148.816172,109.492578 L130.569105,128.426598 Z M165.113706,97.3034706 L129.073487,90.9187843 L111.869008,58.5863284 C110.579958,56.1667843 108.063029,54.6522402 105.323576,54.6522402 C102.580576,54.6522402 100.066307,56.1667843 98.7781429,58.5863284 L81.5736639,90.9187843 L45.5325588,97.3034706 C42.8312269,97.781701 40.6183866,99.7088186 39.7699538,102.318235 C38.9250672,104.924103 39.5828908,107.790824 41.4845504,109.763191 L66.8932059,136.130632 L61.823,172.407824 C61.4426681,175.125485 62.5925294,177.828064 64.808916,179.440206 C66.1006261,180.378922 67.6308193,180.857152 69.1689916,180.857152 C70.2736387,180.857152 71.3853782,180.611382 72.4173277,180.109196 L105.323576,164.075613 L138.229824,180.109196 C140.691786,181.307877 143.618303,181.05501 145.834689,179.440206 C148.054622,177.828064 149.200937,175.125485 148.823265,172.407824 L143.753059,136.130632 L169.162601,109.763191 C171.063374,107.787275 171.721197,104.924103 170.876311,102.318235 C170.027878,99.7088186 167.815038,97.781701 165.113706,97.3034706 L165.113706,97.3034706 Z" id="Fill-1" fill="#87DFFF"></path>
                        <path d="M33.2112227,36.7137206 C35.4586387,36.3144559 37.3948739,34.9072696 38.4649454,32.8940882 L43.6176008,23.2141373 L48.7675966,32.8940882 C49.8376681,34.9072696 51.776563,36.3144559 54.0213193,36.7137206 L64.808916,38.6230931 L57.2031639,46.5178873 C55.6206639,48.1575343 54.8795042,50.4377794 55.1986639,52.6976176 L56.7155588,63.5558431 L46.865937,58.7557941 C44.8162227,57.7576324 42.4198655,57.7576324 40.3692647,58.7557941 L30.5205294,63.5558431 L32.0374244,52.6976176 C32.3521513,50.4377794 31.6145378,48.1575343 30.0284916,46.5178873 L22.4236261,38.6230931 L33.2112227,36.7137206 Z M43.6176008,73.6865196 L62.7414706,83.0062451 C63.7734202,83.5093186 64.8816134,83.7550882 65.9898067,83.7550882 C67.5270924,83.7550882 69.0581723,83.2768578 70.3498824,82.3372549 C72.5662689,80.722451 73.712584,78.0189853 73.3349118,75.3022108 L70.3880042,54.2192598 L85.154458,38.8963676 C87.0552311,36.9213382 87.7166008,34.0581667 86.8681681,31.452299 C86.0197353,28.8419951 83.806895,26.9122157 81.1091092,26.4366471 L60.1642563,22.7252598 L50.1630336,3.93320098 C48.8748697,1.51454412 46.3570546,0 43.6176008,0 C40.8781471,0 38.3612185,1.51454412 37.0721681,3.93320098 L27.0709454,22.7252598 L6.12609244,26.4339853 C3.42830672,26.9122157 1.21192017,28.8419951 0.363487395,31.44875 C-0.48139916,34.0581667 0.17642437,36.9213382 2.08163025,38.8963676 L16.8445378,54.2192598 L13.8976303,75.3022108 C13.519958,78.0189853 14.6662731,80.722451 16.8862059,82.3337059 C19.1025924,83.9493971 22.0291092,84.2058137 24.4910714,83.0062451 L43.6176008,73.6865196 Z" id="Fill-3" fill="#87DFFF"></path>
                        <path d="M180.617773,46.5178873 C179.035273,48.1575343 178.294113,50.4377794 178.609727,52.6976176 L180.126622,63.5558431 L170.277,58.7557941 C168.227286,57.7576324 165.834475,57.7576324 163.783874,58.7557941 L153.931592,63.5558431 L155.448487,52.6976176 C155.763214,50.4377794 155.025601,48.1575343 153.443101,46.5178873 L145.838235,38.6230931 L156.625832,36.7137206 C158.869702,36.3144559 160.809483,34.9072696 161.879555,32.8940882 L167.028664,23.2141373 L172.17866,32.8940882 C173.252277,34.9072696 175.187626,36.3144559 177.432382,36.7137206 L188.223525,38.6230931 L180.617773,46.5178873 Z M196.749521,75.3022108 L193.802613,54.2192598 L208.565521,38.8963676 C210.46984,36.9213382 211.12855,34.0581667 210.282777,31.452299 C209.434345,28.8419951 207.217958,26.9122157 204.520172,26.4366471 L183.575319,22.7252598 L173.577643,3.93320098 C172.289479,1.51454412 169.771664,0 167.028664,0 C164.28921,0 161.772282,1.51454412 160.484118,3.93320098 L150.485555,22.7252598 L129.537155,26.4366471 C126.83937,26.9122157 124.626529,28.8419951 123.778097,31.452299 C122.929664,34.0581667 123.591034,36.9213382 125.492693,38.8963676 L140.259147,54.2192598 L137.312239,75.3022108 C136.934567,78.0189853 138.080882,80.722451 140.297269,82.3372549 C142.517202,83.9493971 145.440172,84.2058137 147.905681,83.0062451 L167.028664,73.6865196 L186.15608,83.0062451 C187.184483,83.5093186 188.296223,83.7550882 189.40087,83.7550882 C190.938155,83.7550882 192.469235,83.2768578 193.760945,82.3372549 C195.980878,80.722451 197.127193,78.0189853 196.749521,75.3022108 L196.749521,75.3022108 Z" id="Fill-5" fill="#87DFFF"></path>
                    </g>
                    <g id="Group-28">
                        <path d="M31.8920294,168.421 C29.9416092,168.421 28.0301975,169.212116 26.6489454,170.589277 C25.2703529,171.963786 24.4768866,173.873071 24.4768866,175.81683 C24.4768866,177.760589 25.2703529,179.670759 26.6489454,181.044384 C28.0301975,182.422429 29.9416092,183.212661 31.8920294,183.212661 C33.8451092,183.212661 35.756521,182.422429 37.1386597,181.044384 C38.523458,179.670759 39.3098319,177.760589 39.3098319,175.81683 C39.3098319,173.873071 38.523458,171.963786 37.1386597,170.589277 C35.756521,169.212116 33.8451092,168.421 31.8920294,168.421" id="Fill-8" fill="#FF9431"></path>
                        <path d="M105.320029,205.028018 C103.370496,205.028018 101.458197,205.819134 100.076945,207.192759 C98.6983529,208.570804 97.9057731,210.476554 97.9057731,212.423848 C97.9057731,214.368491 98.6983529,216.274241 100.076945,217.651402 C101.46529,219.025911 103.370496,219.817027 105.320029,219.817027 C107.273109,219.817027 109.184521,219.025911 110.563113,217.651402 C111.951458,216.274241 112.737832,214.368491 112.737832,212.423848 C112.737832,210.476554 111.951458,208.570804 110.563113,207.192759 C109.184521,205.819134 107.280202,205.028018 105.320029,205.028018" id="Fill-10" fill="#FF9431"></path>
                        <path d="M178.751576,168.421 C176.798496,168.421 174.887084,169.212116 173.504945,170.589277 C172.126353,171.963786 171.333773,173.873071 171.333773,175.81683 C171.333773,177.760589 172.126353,179.670759 173.504945,181.044384 C174.887084,182.422429 176.798496,183.212661 178.751576,183.212661 C180.701109,183.212661 182.612521,182.422429 183.99466,181.044384 C185.380345,179.670759 186.165832,177.760589 186.165832,175.81683 C186.165832,173.873071 185.380345,171.963786 183.99466,170.589277 C182.612521,169.212116 180.701109,168.421 178.751576,168.421" id="Fill-12" fill="#FF9431"></path>
                        <path d="M203.224916,131.817518 C201.275382,131.817518 199.360424,132.60775 197.981832,133.982259 C196.60058,135.360304 195.807113,137.266054 195.807113,139.213348 C195.807113,141.157107 196.60058,143.063741 197.981832,144.440902 C199.360424,145.815411 201.275382,146.605643 203.224916,146.605643 C205.175336,146.605643 207.090294,145.815411 208.468887,144.440902 C209.857231,143.066393 210.643605,141.157107 210.643605,139.213348 C210.643605,137.266054 209.857231,135.360304 208.468887,133.982259 C207.090294,132.60775 205.175336,131.817518 203.224916,131.817518" id="Fill-14" fill="#FF9431"></path>
                        <path d="M18.4178025,120.817518 C16.4682689,120.817518 14.5533109,121.60775 13.1747185,122.982259 C11.7934664,124.360304 11,126.266054 11,128.213348 C11,130.157107 11.7934664,132.063741 13.1747185,133.440902 C14.5533109,134.815411 16.4682689,135.605643 18.4178025,135.605643 C20.3744286,135.605643 22.2831807,134.815411 23.6608866,133.440902 C25.0465714,132.066393 25.835605,130.157107 25.835605,128.213348 C25.835605,126.266054 25.0465714,124.360304 23.6608866,122.982259 C22.2831807,121.60775 20.3744286,120.817518 18.4178025,120.817518" id="Fill-16" fill="#FF9431"></path>
                        <path d="M203.224916,192.825384 C201.275382,192.825384 199.360424,193.6165 197.981832,194.991009 C196.60058,196.36817 195.807113,198.277455 195.807113,200.222098 C195.807113,202.165857 196.60058,204.071607 197.981832,205.449652 C199.360424,206.823277 201.275382,207.617929 203.224916,207.617929 C205.175336,207.617929 207.090294,206.823277 208.468887,205.449652 C209.857231,204.071607 210.643605,202.165857 210.643605,200.222098 C210.643605,198.277455 209.857231,196.36817 208.468887,194.991009 C207.090294,193.6165 205.175336,192.825384 203.224916,192.825384" id="Fill-18" fill="#FF9431"></path>
                        <path d="M7.41780252,159.825384 C5.46826891,159.825384 3.55331092,160.6165 2.17471849,161.991009 C0.793466387,163.36817 0,165.277455 0,167.222098 C0,169.165857 0.793466387,171.071607 2.17471849,172.449652 C3.56040336,173.823277 5.46826891,174.617929 7.41780252,174.617929 C9.36733613,174.617929 11.2831807,173.823277 12.6608866,172.449652 C14.0465714,171.071607 14.835605,169.165857 14.835605,167.222098 C14.835605,165.277455 14.0465714,163.36817 12.6608866,161.991009 C11.2831807,160.6165 9.37442857,159.825384 7.41780252,159.825384" id="Fill-20" fill="#FF9431"></path>
                        <path d="M105.320029,36.7916607 C107.273109,36.7916607 109.184521,35.9978929 110.563113,34.6233839 C111.951458,33.248875 112.737832,31.3395893 112.737832,29.3958304 C112.737832,27.4520714 111.951458,25.5419018 110.563113,24.1682768 C109.184521,22.7902321 107.280202,22 105.320029,22 C103.370496,22 101.458197,22.7902321 100.076945,24.1682768 C98.6983529,25.5419018 97.9057731,27.4520714 97.9057731,29.3958304 C97.9057731,31.3395893 98.6983529,33.248875 100.076945,34.6233839 C101.458197,35.9978929 103.370496,36.7916607 105.320029,36.7916607" id="Fill-22" fill="#FF9431"></path>
                        <path d="M127.820029,14.7916607 C129.773109,14.7916607 131.684521,13.9978929 133.063113,12.6233839 C134.451458,11.248875 135.237832,9.33958929 135.237832,7.39583036 C135.237832,5.45207143 134.451458,3.54190179 133.063113,2.16827679 C131.684521,0.790232143 129.780202,0 127.820029,0 C125.870496,0 123.958197,0.790232143 122.576945,2.16827679 C121.198353,3.54190179 120.405773,5.45207143 120.405773,7.39583036 C120.405773,9.33958929 121.198353,11.248875 122.576945,12.6233839 C123.958197,13.9978929 125.870496,14.7916607 127.820029,14.7916607" id="Fill-22" fill="#FF9431"></path>
                        <path d="M83.3200294,14.7916607 C85.2731092,14.7916607 87.184521,13.9978929 88.5631134,12.6233839 C89.951458,11.248875 90.7378319,9.33958929 90.7378319,7.39583036 C90.7378319,5.45207143 89.951458,3.54190179 88.5631134,2.16827679 C87.184521,0.790232143 85.2802017,0 83.3200294,0 C81.3704958,0 79.4581975,0.790232143 78.0769454,2.16827679 C76.6983529,3.54190179 75.9057731,5.45207143 75.9057731,7.39583036 C75.9057731,9.33958929 76.6983529,11.248875 78.0769454,12.6233839 C79.4581975,13.9978929 81.3704958,14.7916607 83.3200294,14.7916607" id="Fill-22" fill="#FF9431"></path>
                        <path d="M203.224916,36.7916607 C205.182429,36.7916607 207.090294,35.9978929 208.468887,34.6233839 C209.857231,33.248875 210.643605,31.3395893 210.643605,29.3958304 C210.643605,27.4520714 209.857231,25.5419018 208.468887,24.1682768 C207.097387,22.7902321 205.185088,22 203.224916,22 C201.275382,22 199.360424,22.7902321 197.981832,24.1682768 C196.60058,25.5419018 195.807113,27.4520714 195.807113,29.3958304 C195.807113,31.3395893 196.60058,33.248875 197.981832,34.6233839 C199.360424,35.9978929 201.275382,36.7916607 203.224916,36.7916607" id="Fill-24" fill="#FF9431"></path>
                        <path d="M7.41780252,36.7916607 C9.37442857,36.7916607 11.2831807,35.9978929 12.6608866,34.6233839 C14.0465714,33.248875 14.835605,31.3395893 14.835605,29.3958304 C14.835605,27.4520714 14.0465714,25.5419018 12.6608866,24.1682768 C11.2831807,22.7902321 9.37442857,22 7.41780252,22 C5.46826891,22 3.55331092,22.7902321 2.17471849,24.1682768 C0.793466387,25.5419018 0,27.4520714 0,29.3958304 C0,31.3395893 0.793466387,33.248875 2.17471849,34.6233839 C3.55331092,35.9978929 5.46472269,36.7916607 7.41780252,36.7916607" id="Fill-26" fill="#FF9431"></path>
                    </g>
                </g>
            </g>
        </g>
    </g>
</svg>